<?xml version="1.0" standalone="no"?>
<!DOCTYPE svg PUBLIC "-//W3C//DTD SVG 20010904//EN"
 "http://www.w3.org/TR/2001/REC-SVG-20010904/DTD/svg10.dtd">
<svg version="1.0" xmlns="http://www.w3.org/2000/svg"
 width="700.000000pt" height="700.000000pt" viewBox="0 0 700.000000 700.000000"
 preserveAspectRatio="xMidYMid meet">
<metadata>
Created by potrace 1.11, written by Peter Selinger 2001-2013
</metadata>
<g transform="translate(0.000000,700.000000) scale(0.100000,-0.100000)"
fill="#000000" stroke="none">
<path d="M1287 6964 c-1 -1 -33 -4 -72 -8 -182 -17 -370 -94 -530 -216 -26
-20 -173 -166 -206 -205 -57 -68 -161 -238 -222 -365 -88 -181 -151 -370 -175
-530 -10 -62 -8 -275 1 -330 53 -292 272 -506 584 -571 54 -11 116 -22 138
-23 22 -2 39 -7 38 -12 -1 -5 -10 -45 -22 -89 -11 -44 -22 -93 -25 -110 -5
-26 -16 -82 -29 -150 -3 -11 -8 -42 -11 -68 -8 -49 -11 -71 -21 -117 -3 -14
-7 -41 -10 -60 -5 -30 -54 -270 -70 -340 -3 -14 -51 -169 -105 -345 -159 -513
-186 -620 -218 -860 -18 -133 -22 -408 -8 -510 40 -290 179 -595 385 -850 235
-292 655 -601 1063 -785 62 -28 122 -55 133 -60 160 -74 594 -210 746 -234 20
-3 42 -8 50 -10 8 -3 64 -13 124 -21 61 -9 121 -18 135 -20 14 -3 61 -7 105
-10 44 -4 98 -8 120 -11 50 -5 375 -4 435 1 25 2 81 6 126 10 45 3 90 7 100 9
10 2 46 7 79 11 32 4 66 8 75 10 8 1 49 8 90 15 365 59 799 197 1138 362 729
354 1228 865 1422 1458 22 66 42 134 45 152 3 18 8 40 10 48 5 19 10 49 31
200 8 60 8 301 -1 370 -16 138 -25 189 -51 295 -41 167 -88 304 -160 466 -29
66 -34 89 -39 180 -10 211 -38 401 -87 588 -31 121 -107 339 -140 404 -18 36
-18 51 0 52 229 17 439 181 558 435 48 104 67 168 93 315 18 102 22 332 6 420
-17 99 -72 202 -147 276 -42 41 -159 129 -173 129 -2 0 -43 22 -90 50 -99 57
-133 90 -177 175 -97 189 -198 272 -398 325 -185 49 -359 25 -556 -76 -202
-104 -364 -239 -472 -394 -51 -72 -90 -169 -77 -190 4 -6 31 -25 61 -42 30
-17 53 -32 51 -35 -3 -2 -28 10 -58 27 -245 145 -697 314 -974 364 -64 12
-141 26 -160 30 -12 2 -48 7 -80 11 -33 4 -71 8 -83 10 -106 17 -478 24 -590
11 -26 -3 -92 -10 -147 -16 -55 -6 -134 -18 -175 -27 -41 -9 -84 -17 -95 -18
-44 -6 -194 -45 -262 -69 l-73 -25 -39 84 c-52 112 -91 166 -176 251 -142 141
-353 231 -585 249 -114 9 -150 12 -153 9z m2248 -667 c17 -3 53 -8 80 -11 72
-9 157 -24 260 -46 50 -11 99 -22 110 -24 26 -5 173 -49 250 -75 521 -174 994
-482 1357 -883 341 -377 581 -874 644 -1338 3 -25 8 -56 9 -70 6 -38 16 -205
19 -295 3 -69 8 -90 41 -155 77 -155 158 -407 189 -590 27 -157 28 -441 2
-575 -10 -49 -20 -101 -22 -115 -13 -67 -81 -248 -134 -354 -280 -556 -892
-1022 -1686 -1285 -147 -48 -436 -124 -524 -136 -24 -4 -47 -8 -50 -10 -3 -2
-30 -6 -60 -10 -30 -4 -57 -8 -60 -10 -3 -1 -34 -6 -70 -10 -36 -3 -78 -8 -95
-10 -191 -25 -625 -25 -795 -1 -14 2 -52 7 -85 11 -33 4 -69 9 -80 11 -16 3
-76 15 -95 19 -3 1 -25 5 -50 9 -121 22 -347 87 -495 142 -55 20 -117 43 -138
50 -150 55 -434 201 -603 310 -465 299 -782 691 -880 1086 -36 149 -51 408
-31 543 4 22 9 63 12 90 13 108 90 430 135 563 10 31 23 73 28 92 6 19 38 123
72 230 72 231 111 381 140 545 11 66 23 131 26 145 2 14 7 41 10 60 21 128 57
309 78 385 50 188 47 181 84 201 75 40 134 136 110 179 -6 10 -2 25 12 46 17
22 22 45 22 91 1 53 7 71 45 139 27 48 51 79 61 80 83 3 119 44 81 92 -18 24
-18 24 24 85 29 43 50 63 70 68 29 6 55 37 62 75 7 38 17 39 90 12 102 -37
150 -41 181 -12 13 12 26 37 30 55 4 24 12 33 32 37 37 8 91 60 98 94 5 27 7
28 73 28 75 1 119 20 155 68 18 25 21 42 21 129 l0 100 30 12 c84 35 405 109
525 121 25 3 72 8 105 11 33 3 61 7 63 9 6 5 484 -3 517 -8z"/>
<path d="M2579 4716 c-2 -2 -24 -6 -49 -9 -149 -19 -343 -123 -473 -254 -126
-127 -141 -151 -312 -528 -51 -111 -160 -346 -207 -445 -28 -58 -63 -132 -78
-165 -15 -33 -62 -132 -105 -220 -89 -186 -115 -257 -119 -328 -6 -115 29
-206 114 -287 116 -113 301 -166 479 -138 54 9 308 87 366 113 17 7 53 23 82
34 272 107 592 315 863 561 186 168 252 249 321 395 112 238 109 491 -8 735
-53 111 -104 182 -187 265 -129 128 -264 208 -424 251 -52 14 -253 30 -263 20z
m-32 -1012 c86 -29 144 -91 176 -185 14 -42 31 -139 24 -139 -2 0 -24 20 -50
44 -110 102 -329 117 -459 31 -21 -14 -40 -25 -43 -25 -9 0 7 52 35 117 67
147 179 204 317 157z"/>
<path d="M4629 4715 c-2 -2 -22 -6 -44 -9 -255 -40 -552 -282 -669 -548 -76
-172 -95 -382 -50 -558 61 -241 208 -428 549 -697 310 -245 627 -411 1018
-532 233 -73 457 -30 603 114 68 67 100 135 107 226 9 110 -11 163 -246 659
-30 63 -64 135 -75 160 -146 322 -341 726 -377 779 -134 199 -356 351 -580
396 -34 7 -231 16 -236 10z m409 -1028 c56 -36 106 -108 132 -186 11 -35 19
-65 17 -68 -3 -2 -21 7 -41 21 -68 46 -180 68 -276 54 -69 -11 -171 -59 -204
-98 -13 -17 -27 -30 -30 -30 -5 0 0 55 10 105 9 43 49 118 81 153 74 81 227
105 311 49z"/>
<path d="M3255 2525 c-56 -16 -87 -38 -122 -88 -62 -87 -77 -235 -30 -306 41
-61 97 -100 330 -230 286 -158 262 -138 224 -186 -74 -96 -217 -197 -341 -244
-188 -70 -406 -72 -542 -5 -95 47 -130 86 -164 184 -19 58 -49 62 -66 10 -45
-137 96 -323 312 -413 32 -14 73 -28 89 -31 17 -3 41 -9 55 -12 56 -12 183 -4
258 16 131 36 323 148 410 240 43 45 89 111 102 146 l11 28 25 -52 c52 -110
184 -221 365 -310 145 -70 310 -92 444 -57 162 41 329 163 385 280 16 34 30
76 30 91 0 45 -19 101 -36 108 -17 7 -34 0 -34 -14 0 -5 -9 -33 -20 -62 -60
-161 -257 -234 -518 -193 -191 31 -323 98 -461 234 l-86 84 43 19 c24 11 88
62 145 117 56 53 134 121 172 151 146 112 172 146 180 231 11 128 -81 210
-275 244 -81 14 -156 7 -252 -24 -141 -45 -196 -43 -367 15 -121 40 -201 49
-266 29z"/>
</g>
</svg>
